<svg xmlns="http://www.w3.org/2000/svg" viewBox="0 0 1440 320">
    <path fill="#e23e57" fill-opacity="1"
          d="M0,192L36.9,256L73.8,256L110.8,32L147.7,320L184.6,32L221.5,32L258.5,128L295.4,0L332.3,128L369.2,256L406.2,64L443.1,192L480,288L516.9,256L553.8,288L590.8,192L627.7,192L664.6,96L701.5,160L738.5,192L775.4,288L812.3,64L849.2,64L886.2,64L923.1,32L960,288L996.9,224L1033.8,256L1070.8,160L1107.7,224L1144.6,192L1181.5,256L1218.5,160L1255.4,256L1292.3,128L1329.2,128L1366.2,128L1403.1,192L1440,96L1440,0L1403.1,0L1366.2,0L1329.2,0L1292.3,0L1255.4,0L1218.5,0L1181.5,0L1144.6,0L1107.7,0L1070.8,0L1033.8,0L996.9,0L960,0L923.1,0L886.2,0L849.2,0L812.3,0L775.4,0L738.5,0L701.5,0L664.6,0L627.7,0L590.8,0L553.8,0L516.9,0L480,0L443.1,0L406.2,0L369.2,0L332.3,0L295.4,0L258.5,0L221.5,0L184.6,0L147.7,0L110.8,0L73.8,0L36.9,0L0,0Z"></path>
</svg>